<?xml version="1.0" encoding="UTF-8"?><svg id="Layer_1" xmlns="http://www.w3.org/2000/svg" viewBox="0 0 503.701 546.722"><defs><style>.cls-1{fill:#f0b08c;}.cls-1,.cls-2,.cls-3,.cls-4,.cls-5,.cls-6,.cls-7,.cls-8,.cls-9,.cls-10,.cls-11,.cls-12,.cls-13,.cls-14,.cls-15,.cls-16,.cls-17,.cls-18,.cls-19,.cls-20,.cls-21,.cls-22,.cls-23,.cls-24,.cls-25,.cls-26,.cls-27,.cls-28,.cls-29,.cls-30,.cls-31,.cls-32,.cls-33,.cls-34,.cls-35,.cls-36,.cls-37,.cls-38,.cls-39,.cls-40,.cls-41,.cls-42,.cls-43{stroke-miterlimit:10;}.cls-1,.cls-3,.cls-9,.cls-11,.cls-19,.cls-24,.cls-27,.cls-29,.cls-31,.cls-32,.cls-33,.cls-35,.cls-36,.cls-37,.cls-39,.cls-40,.cls-41{stroke:#231f20;}.cls-1,.cls-29{stroke-width:1.6px;}.cls-2,.cls-4,.cls-5,.cls-6,.cls-7,.cls-8,.cls-10,.cls-11,.cls-12,.cls-13,.cls-14,.cls-15,.cls-16,.cls-17,.cls-18,.cls-20,.cls-21,.cls-22,.cls-23,.cls-25,.cls-26,.cls-28,.cls-29,.cls-30,.cls-31,.cls-32,.cls-34,.cls-37,.cls-41,.cls-42,.cls-43{fill:none;}.cls-2,.cls-4,.cls-14,.cls-18{stroke:#603913;}.cls-2,.cls-5,.cls-7,.cls-16,.cls-24,.cls-25,.cls-30,.cls-41{stroke-width:.75px;}.cls-3{fill:#3e4344;}.cls-3,.cls-33{stroke-width:.675px;}.cls-4{stroke-width:.5px;}.cls-5,.cls-12,.cls-42{stroke:#2e3192;}.cls-6{stroke-width:1.024px;}.cls-6,.cls-38{stroke:#010101;}.cls-7{stroke-dasharray:4.165 4.165;}.cls-7,.cls-13,.cls-16,.cls-20,.cls-21,.cls-23,.cls-26,.cls-34{stroke:#695aa7;}.cls-8{stroke-width:1.366px;}.cls-8,.cls-17,.cls-28,.cls-30{stroke:#ed1f24;}.cls-9{stroke-width:.032px;}.cls-9,.cls-44,.cls-19{fill:#231f20;}.cls-45{fill:#f0f2f9;}.cls-10{stroke:#ed1e25;}.cls-10,.cls-12,.cls-14,.cls-17,.cls-22{stroke-width:1.166px;}.cls-11{stroke-width:1.366px;}.cls-15,.cls-22,.cls-25,.cls-43{stroke:#be5762;}.cls-18,.cls-27,.cls-43{stroke-width:1.025px;}.cls-19{stroke-width:.683px;}.cls-20{stroke-dasharray:4.267 4.267;}.cls-21,.cls-34{stroke-width:.918px;}.cls-23,.cls-26{stroke-width:.918px;}.cls-24,.cls-39{fill:#d4d4d8;}.cls-26{stroke-dasharray:4.066 4.066;}.cls-27{fill:#9ca3af;}.cls-46{fill:#ed1f24;}.cls-47{fill:#be5762;}.cls-48{fill:#7fc8c0;}.cls-31,.cls-35,.cls-40{stroke-width:1.5px;}.cls-32{stroke-width:1.165px;}.cls-49{fill:#695aa7;}.cls-33{fill:#9da59f;}.cls-50{fill:#603913;}.cls-34{stroke-dasharray:4.052 4.052;}.cls-51{fill:#2e3192;}.cls-35{fill:#da5d62;opacity:.67;}.cls-36{fill:#9fd9ef;stroke-width:.622px;}.cls-38{stroke-width:.652px;}.cls-38,.cls-52{fill:#010101;}.cls-39{stroke-width:.9px;}.cls-40{fill:#a8c8e7;}</style></defs><line class="cls-14" x1="140.295" y1="250.282" x2="140.295" y2="262.232"/><line class="cls-14" x1="63.282" y1="250.31" x2="63.282" y2="262.261"/><line class="cls-12" x1="143.391" y1="517.957" x2="225.891" y2="517.957"/><line class="cls-8" x1="349.101" y1="51.275" x2="316.069" y2="51.274"/><line class="cls-22" x1="418.703" y1="240.254" x2="418.703" y2="289.469"/><line class="cls-43" x1="418.605" y1="289.463" x2="418.605" y2="301.391"/><rect class="cls-1" x="234.057" y="8.637" width="40.332" height="57.578"/><polygon class="cls-9" points="147.585 57.401 142.732 69.188 152.438 69.188 147.585 57.401"/><polygon class="cls-9" points="147.585 57.401 135.797 52.548 135.797 62.254 147.585 57.401"/><polygon class="cls-9" points="147.585 57.401 159.373 52.548 159.373 62.254 147.585 57.401"/><polygon class="cls-9" points="369.573 50.401 364.72 62.188 374.426 62.188 369.573 50.401"/><polygon class="cls-9" points="369.573 50.401 357.786 45.548 357.786 55.254 369.573 50.401"/><polygon class="cls-9" points="369.573 50.401 381.361 45.548 381.361 55.254 369.573 50.401"/><line class="cls-8" x1="381.361" y1="51.307" x2="418.63" y2="51.307"/><line class="cls-17" x1="418.614" y1="133.467" x2="418.614" y2="50.625"/><line class="cls-8" x1="357.787" y1="51.294" x2="349.123" y2="51.294"/><line class="cls-10" x1="418.618" y1="127.3" x2="418.618" y2="132.956"/><line class="cls-8" x1="87.241" y1="57.401" x2="135.797" y2="57.396"/><line class="cls-17" x1="87.276" y1="56.73" x2="87.252" y2="133.353"/><line class="cls-10" x1="226.46" y1="132.783" x2="86.673" y2="132.783"/><line class="cls-30" x1="419.209" y1="132.961" x2="287.456" y2="132.961"/><path class="cls-46" d="M282.93,132.961c2.13-.79,4.772-2.139,6.411-3.567l-1.29,3.567,1.29,3.566c-1.638-1.428-4.281-2.777-6.411-3.566Z"/><line class="cls-25" x1="221.739" y1="156.141" x2="87.263" y2="156.141"/><path class="cls-47" d="M226.266,156.141c-2.13-.79-4.772-2.139-6.41-3.567l1.29,3.567-1.29,3.566c1.638-1.428,4.281-2.777,6.411-3.566Z"/><line class="cls-22" x1="419.181" y1="156.462" x2="281.254" y2="156.462"/><line class="cls-15" x1="418.578" y1="157.023" x2="418.678" y2="219.186"/><path class="cls-47" d="M418.688,225.221c-1.058-2.838-2.862-6.359-4.77-8.54l4.759,1.713,4.752-1.728c-1.901,2.187-3.693,5.714-4.741,8.555Z"/><polygon class="cls-19" points="418.605 237.871 407.193 225.232 430.017 225.232 418.605 237.871"/><polygon class="cls-19" points="418.605 237.848 407.193 250.487 430.017 250.487 418.605 237.848"/><line class="cls-43" x1="226.577" y1="301.39" x2="86.684" y2="301.39"/><line class="cls-25" x1="419.094" y1="300.886" x2="287.531" y2="300.886"/><path class="cls-47" d="M283.004,300.886c2.13-.79,4.772-2.139,6.41-3.567l-1.29,3.567,1.29,3.566c-1.638-1.428-4.281-2.777-6.41-3.566Z"/><line class="cls-23" x1="147.585" y1="69.188" x2="147.592" y2="71.219"/><line class="cls-26" x1="147.605" y1="75.285" x2="148.656" y2="390.416"/><line class="cls-23" x1="148.663" y1="392.449" x2="148.67" y2="394.48"/><line class="cls-21" x1="369.565" y1="62.17" x2="369.569" y2="64.201"/><line class="cls-34" x1="369.577" y1="68.253" x2="370.213" y2="390.405"/><line class="cls-21" x1="370.217" y1="392.431" x2="370.221" y2="394.462"/><line class="cls-13" x1="148.407" y1="394.49" x2="150.438" y2="394.49"/><line class="cls-20" x1="154.705" y1="394.49" x2="220.844" y2="394.49"/><line class="cls-13" x1="222.977" y1="394.49" x2="225.008" y2="394.49"/><line class="cls-16" x1="370.699" y1="394.578" x2="368.669" y2="394.578"/><line class="cls-7" x1="364.504" y1="394.578" x2="291.619" y2="394.578"/><line class="cls-16" x1="289.537" y1="394.578" x2="287.506" y2="394.578"/><path class="cls-49" d="M282.979,394.578c2.13-.79,4.772-2.139,6.411-3.567l-1.29,3.567,1.29,3.566c-1.638-1.428-4.281-2.777-6.411-3.566Z"/><line class="cls-42" x1="281.543" y1="414.562" x2="373.163" y2="414.562"/><line class="cls-12" x1="372.418" y1="413.863" x2="373.105" y2="506.124"/><line class="cls-12" x1="281.468" y1="322.686" x2="411.446" y2="322.686"/><line class="cls-12" x1="410.871" y1="518.499" x2="410.871" y2="322.693"/><line class="cls-12" x1="384.404" y1="517.919" x2="410.876" y2="517.919"/><polygon class="cls-9" points="373.164 517.957 378.017 506.169 368.311 506.169 373.164 517.957"/><polygon class="cls-9" points="373.164 517.957 384.951 522.81 384.951 513.104 373.164 517.957"/><polygon class="cls-9" points="373.164 517.957 361.376 522.81 361.376 513.104 373.164 517.957"/><line class="cls-5" x1="131.592" y1="415.24" x2="221.685" y2="415.24"/><path class="cls-51" d="M226.212,415.24c-2.13.79-4.772,2.139-6.41,3.567l1.29-3.567-1.29-3.566c1.638,1.428,4.281,2.777,6.41,3.566Z"/><line class="cls-12" x1="131.588" y1="414.75" x2="131.588" y2="505.444"/><polygon class="cls-9" points="131.597 517.957 126.744 506.169 136.45 506.169 131.597 517.957"/><polygon class="cls-9" points="131.597 517.957 119.809 522.81 119.809 513.104 131.597 517.957"/><polygon class="cls-9" points="131.597 517.957 143.384 522.81 143.384 513.104 131.597 517.957"/><line class="cls-5" x1="221.715" y1="323.281" x2="99.727" y2="323.283"/><path class="cls-51" d="M226.242,323.281c-2.13-.79-4.772-2.139-6.411-3.567l1.29,3.567-1.29,3.566c1.638-1.428,4.281-2.777,6.41-3.566Z"/><line class="cls-12" x1="98.68" y1="516.978" x2="99.436" y2="322.773"/><line class="cls-12" x1="98.089" y1="517.235" x2="119.809" y2="517.235"/><rect class="cls-36" x="227.136" y="493.368" width="54.174" height="45.804" rx="1.916" ry="1.916"/><path class="cls-44" d="M241.715,521.588c-.525.263-1.575.525-2.92.525-3.117,0-5.462-1.969-5.462-5.594,0-3.461,2.346-5.807,5.774-5.807,1.378,0,2.248.295,2.625.492l-.344,1.165c-.542-.263-1.312-.46-2.231-.46-2.592,0-4.314,1.657-4.314,4.561,0,2.706,1.558,4.445,4.249,4.445.869,0,1.755-.181,2.329-.46l.295,1.132Z"/><path class="cls-44" d="M243.5,511.042c.722-.147,1.755-.229,2.739-.229,1.526,0,2.51.278,3.199.902.558.492.87,1.246.87,2.1,0,1.46-.919,2.428-2.083,2.821v.049c.853.296,1.361,1.083,1.624,2.231.361,1.541.623,2.607.853,3.034h-1.477c-.18-.312-.426-1.263-.738-2.641-.328-1.525-.919-2.1-2.215-2.149h-1.345v4.79h-1.427v-10.908ZM244.927,516.078h1.46c1.525,0,2.493-.837,2.493-2.1,0-1.428-1.034-2.051-2.542-2.067-.689,0-1.181.065-1.411.132v4.035Z"/><path class="cls-44" d="M254.191,518.472l-1.148,3.478h-1.476l3.756-11.056h1.723l3.772,11.056h-1.525l-1.181-3.478h-3.921ZM257.816,517.357l-1.082-3.183c-.246-.722-.41-1.378-.574-2.018h-.033c-.164.656-.345,1.329-.558,2.001l-1.082,3.199h3.329Z"/><path class="cls-44" d="M263.865,510.894v4.626h5.347v-4.626h1.444v11.056h-1.444v-5.184h-5.347v5.184h-1.428v-11.056h1.428Z"/><path class="cls-44" d="M134.634,36.764c.364-.077.938-.134,1.521-.134.832,0,1.368.144,1.77.469.335.249.536.631.536,1.139,0,.622-.412,1.167-1.091,1.416v.02c.612.153,1.33.66,1.33,1.617,0,.555-.22.976-.545,1.292-.45.412-1.177.603-2.229.603-.574,0-1.014-.039-1.292-.077v-6.343ZM135.467,39.405h.756c.88,0,1.396-.459,1.396-1.081,0-.756-.574-1.052-1.416-1.052-.383,0-.603.028-.737.057v2.076ZM135.467,42.495c.163.029.402.038.698.038.861,0,1.655-.315,1.655-1.253,0-.88-.756-1.244-1.665-1.244h-.689v2.459Z"/><path class="cls-44" d="M140.134,38.496l1.014,2.736c.105.306.22.67.297.947h.019c.086-.277.182-.631.296-.966l.918-2.717h.89l-1.263,3.3c-.603,1.588-1.014,2.402-1.588,2.899-.412.364-.823.507-1.034.545l-.21-.708c.21-.067.488-.201.737-.411.229-.182.517-.507.708-.938.038-.086.067-.153.067-.201s-.019-.115-.057-.22l-1.713-4.267h.918Z"/><path class="cls-44" d="M144.333,40.007c0-.593-.019-1.071-.038-1.511h.756l.038.794h.019c.345-.564.89-.899,1.646-.899,1.119,0,1.961.947,1.961,2.354,0,1.665-1.014,2.488-2.104,2.488-.612,0-1.148-.268-1.426-.728h-.019v2.517h-.833v-5.014ZM145.166,41.242c0,.125.019.239.038.344.153.584.66.986,1.263.986.89,0,1.406-.728,1.406-1.789,0-.928-.488-1.722-1.377-1.722-.574,0-1.11.411-1.272,1.042-.029.105-.058.23-.058.345v.794Z"/><path class="cls-44" d="M152.339,43.127l-.067-.583h-.028c-.258.363-.756.689-1.416.689-.938,0-1.416-.66-1.416-1.33,0-1.119.995-1.731,2.784-1.722v-.096c0-.383-.105-1.071-1.053-1.071-.43,0-.88.134-1.206.344l-.191-.555c.382-.249.938-.412,1.521-.412,1.416,0,1.76.966,1.76,1.895v1.731c0,.402.019.794.077,1.11h-.766ZM152.215,40.763c-.918-.019-1.961.144-1.961,1.043,0,.545.364.804.794.804.603,0,.985-.383,1.12-.775.029-.086.048-.182.048-.268v-.804Z"/><path class="cls-44" d="M154.271,42.266c.249.163.689.334,1.11.334.612,0,.899-.306.899-.688,0-.402-.239-.622-.861-.852-.832-.297-1.225-.756-1.225-1.311,0-.746.603-1.358,1.598-1.358.469,0,.88.134,1.138.287l-.21.612c-.182-.115-.517-.268-.947-.268-.497,0-.775.287-.775.631,0,.383.278.555.88.785.804.306,1.215.708,1.215,1.397,0,.813-.631,1.387-1.731,1.387-.507,0-.976-.125-1.301-.316l.21-.641Z"/><path class="cls-44" d="M158.059,42.266c.249.163.689.334,1.11.334.612,0,.899-.306.899-.688,0-.402-.239-.622-.861-.852-.832-.297-1.225-.756-1.225-1.311,0-.746.603-1.358,1.598-1.358.469,0,.88.134,1.138.287l-.21.612c-.182-.115-.517-.268-.947-.268-.497,0-.775.287-.775.631,0,.383.278.555.88.785.804.306,1.215.708,1.215,1.397,0,.813-.631,1.387-1.731,1.387-.507,0-.976-.125-1.301-.316l.21-.641Z"/><path class="cls-44" d="M356.624,36.764c.363-.077.938-.134,1.521-.134.833,0,1.368.144,1.771.469.335.249.535.631.535,1.139,0,.622-.411,1.167-1.091,1.416v.02c.612.153,1.33.66,1.33,1.617,0,.555-.22.976-.545,1.292-.45.412-1.177.603-2.229.603-.574,0-1.014-.039-1.291-.077v-6.343ZM357.456,39.405h.756c.88,0,1.396-.459,1.396-1.081,0-.756-.574-1.052-1.416-1.052-.383,0-.603.028-.736.057v2.076ZM357.456,42.495c.162.029.401.038.698.038.861,0,1.655-.315,1.655-1.253,0-.88-.756-1.244-1.665-1.244h-.688v2.459Z"/><path class="cls-44" d="M362.124,38.496l1.014,2.736c.105.306.22.67.297.947h.019c.087-.277.183-.631.297-.966l.919-2.717h.89l-1.263,3.3c-.604,1.588-1.015,2.402-1.589,2.899-.411.364-.822.507-1.033.545l-.21-.708c.21-.067.487-.201.736-.411.229-.182.517-.507.708-.938.038-.086.067-.153.067-.201s-.02-.115-.058-.22l-1.713-4.267h.919Z"/><path class="cls-44" d="M366.322,40.007c0-.593-.019-1.071-.038-1.511h.756l.038.794h.02c.344-.564.89-.899,1.646-.899,1.119,0,1.961.947,1.961,2.354,0,1.665-1.014,2.488-2.104,2.488-.612,0-1.148-.268-1.426-.728h-.02v2.517h-.832v-5.014ZM367.154,41.242c0,.125.02.239.039.344.152.584.66.986,1.263.986.89,0,1.406-.728,1.406-1.789,0-.928-.488-1.722-1.378-1.722-.574,0-1.109.411-1.272,1.042-.028.105-.058.23-.058.345v.794Z"/><path class="cls-44" d="M374.329,43.127l-.067-.583h-.028c-.259.363-.756.689-1.416.689-.938,0-1.416-.66-1.416-1.33,0-1.119.995-1.731,2.784-1.722v-.096c0-.383-.105-1.071-1.053-1.071-.431,0-.88.134-1.205.344l-.191-.555c.383-.249.938-.412,1.521-.412,1.416,0,1.761.966,1.761,1.895v1.731c0,.402.02.794.076,1.11h-.765ZM374.204,40.763c-.918-.019-1.961.144-1.961,1.043,0,.545.363.804.794.804.603,0,.985-.383,1.119-.775.029-.086.048-.182.048-.268v-.804Z"/><path class="cls-44" d="M376.261,42.266c.248.163.688.334,1.109.334.612,0,.899-.306.899-.688,0-.402-.239-.622-.861-.852-.832-.297-1.225-.756-1.225-1.311,0-.746.603-1.358,1.598-1.358.469,0,.881.134,1.139.287l-.21.612c-.183-.115-.517-.268-.947-.268-.498,0-.775.287-.775.631,0,.383.277.555.88.785.804.306,1.216.708,1.216,1.397,0,.813-.632,1.387-1.732,1.387-.507,0-.976-.125-1.301-.316l.211-.641Z"/><path class="cls-44" d="M380.049,42.266c.248.163.688.334,1.109.334.612,0,.899-.306.899-.688,0-.402-.239-.622-.861-.852-.832-.297-1.225-.756-1.225-1.311,0-.746.603-1.358,1.598-1.358.469,0,.881.134,1.139.287l-.21.612c-.183-.115-.517-.268-.947-.268-.498,0-.775.287-.775.631,0,.383.277.555.88.785.804.306,1.216.708,1.216,1.397,0,.813-.632,1.387-1.732,1.387-.507,0-.976-.125-1.301-.316l.211-.641Z"/><path class="cls-44" d="M291.289,75.04c.419-.07.969-.13,1.669-.13.859,0,1.489.2,1.889.56.37.32.59.81.59,1.409,0,.61-.18,1.089-.52,1.439-.46.49-1.21.739-2.06.739-.26,0-.499-.01-.699-.06v2.699h-.869v-6.656ZM292.158,78.288c.189.05.43.07.72.07,1.049,0,1.688-.509,1.688-1.439,0-.89-.629-1.319-1.589-1.319-.38,0-.67.03-.819.07v2.619Z"/><path class="cls-44" d="M300.477,80.377c0,.5.01.939.039,1.319h-.779l-.05-.79h-.02c-.23.39-.74.899-1.6.899-.76,0-1.669-.42-1.669-2.119v-2.829h.88v2.679c0,.919.279,1.539,1.079,1.539.59,0,.999-.41,1.159-.8.05-.13.08-.29.08-.45v-2.968h.88v3.518Z"/><path class="cls-44" d="M301.939,78.168c0-.5-.01-.91-.04-1.31h.77l.04.78h.03c.27-.46.72-.89,1.519-.89.66,0,1.16.4,1.37.969h.02c.15-.27.34-.479.54-.629.29-.22.609-.34,1.069-.34.64,0,1.589.42,1.589,2.099v2.849h-.859v-2.738c0-.93-.34-1.489-1.05-1.489-.499,0-.89.37-1.039.799-.04.12-.07.28-.07.44v2.988h-.859v-2.898c0-.77-.34-1.329-1.01-1.329-.549,0-.949.439-1.089.879-.05.13-.07.28-.07.43v2.918h-.859v-3.528Z"/><path class="cls-44" d="M310.278,78.438c0-.62-.02-1.119-.04-1.579h.79l.04.83h.02c.36-.59.93-.939,1.719-.939,1.17,0,2.049.989,2.049,2.458,0,1.739-1.059,2.599-2.198,2.599-.64,0-1.199-.28-1.489-.759h-.021v2.628h-.869v-5.237ZM311.148,79.727c0,.13.021.25.04.36.16.609.69,1.029,1.319,1.029.93,0,1.47-.76,1.47-1.869,0-.969-.51-1.799-1.439-1.799-.6,0-1.159.43-1.329,1.089-.03.11-.061.24-.061.36v.83Z"/><path class="cls-44" d="M120.536,525.624c.364-.076.938-.134,1.521-.134.832,0,1.368.144,1.77.469.335.249.536.632.536,1.139,0,.622-.412,1.167-1.091,1.416v.019c.612.153,1.33.66,1.33,1.617,0,.555-.22.976-.545,1.292-.45.411-1.177.603-2.229.603-.574,0-1.014-.038-1.292-.077v-6.343ZM121.369,528.264h.756c.88,0,1.396-.459,1.396-1.081,0-.756-.574-1.053-1.416-1.053-.383,0-.603.029-.737.058v2.076ZM121.369,531.354c.163.029.402.039.698.039.861,0,1.655-.316,1.655-1.254,0-.88-.756-1.243-1.665-1.243h-.689v2.458Z"/><path class="cls-44" d="M126.036,527.355l1.014,2.736c.105.307.22.67.297.947h.019c.086-.277.182-.631.296-.966l.918-2.718h.89l-1.263,3.301c-.603,1.589-1.014,2.401-1.588,2.899-.412.363-.823.507-1.034.545l-.21-.708c.21-.066.488-.201.737-.411.229-.182.517-.507.708-.938.038-.086.067-.153.067-.201s-.019-.115-.057-.22l-1.713-4.268h.918Z"/><path class="cls-44" d="M130.235,528.867c0-.593-.019-1.071-.038-1.512h.756l.038.794h.019c.345-.564.89-.898,1.646-.898,1.119,0,1.961.946,1.961,2.354,0,1.664-1.014,2.487-2.104,2.487-.612,0-1.148-.269-1.426-.728h-.019v2.517h-.833v-5.014ZM131.068,530.101c0,.124.019.239.038.345.153.583.66.985,1.263.985.89,0,1.406-.728,1.406-1.789,0-.929-.488-1.723-1.377-1.723-.574,0-1.11.412-1.272,1.043-.029.105-.058.229-.058.345v.794Z"/><path class="cls-44" d="M138.241,531.986l-.067-.584h-.028c-.258.364-.756.689-1.416.689-.938,0-1.416-.66-1.416-1.33,0-1.119.995-1.731,2.784-1.722v-.096c0-.383-.105-1.072-1.053-1.072-.43,0-.88.134-1.206.345l-.191-.555c.382-.249.938-.411,1.521-.411,1.416,0,1.76.966,1.76,1.894v1.732c0,.401.019.794.077,1.109h-.766ZM138.117,529.623c-.918-.019-1.961.144-1.961,1.043,0,.545.364.804.794.804.603,0,.985-.383,1.12-.775.029-.086.048-.182.048-.268v-.804Z"/><path class="cls-44" d="M140.173,531.125c.249.163.689.335,1.11.335.612,0,.899-.306.899-.688,0-.402-.239-.622-.861-.852-.832-.297-1.225-.756-1.225-1.311,0-.746.603-1.358,1.598-1.358.469,0,.88.134,1.138.286l-.21.612c-.182-.114-.517-.268-.947-.268-.497,0-.775.287-.775.632,0,.383.278.555.88.784.804.307,1.215.708,1.215,1.396,0,.813-.631,1.388-1.731,1.388-.507,0-.976-.124-1.301-.315l.21-.642Z"/><path class="cls-44" d="M143.961,531.125c.249.163.689.335,1.11.335.612,0,.899-.306.899-.688,0-.402-.239-.622-.861-.852-.832-.297-1.225-.756-1.225-1.311,0-.746.603-1.358,1.598-1.358.469,0,.88.134,1.138.286l-.21.612c-.182-.114-.517-.268-.947-.268-.497,0-.775.287-.775.632,0,.383.278.555.88.784.804.307,1.215.708,1.215,1.396,0,.813-.631,1.388-1.731,1.388-.507,0-.976-.124-1.301-.315l.21-.642Z"/><path class="cls-44" d="M359.566,525.704c.38-.08.979-.14,1.589-.14.869,0,1.43.149,1.849.489.351.26.561.66.561,1.189,0,.649-.431,1.22-1.14,1.479v.02c.64.16,1.389.69,1.389,1.689,0,.58-.229,1.02-.569,1.35-.47.43-1.229.629-2.329.629-.6,0-1.059-.04-1.349-.079v-6.627ZM360.435,528.462h.79c.919,0,1.459-.479,1.459-1.13,0-.789-.6-1.099-1.479-1.099-.399,0-.63.029-.77.06v2.169ZM360.435,531.691c.17.029.42.039.729.039.899,0,1.729-.329,1.729-1.309,0-.92-.79-1.3-1.739-1.3h-.72v2.569Z"/><path class="cls-44" d="M365.316,527.513l1.059,2.858c.11.319.23.699.311.989h.02c.09-.29.19-.66.31-1.01l.96-2.838h.93l-1.319,3.447c-.63,1.659-1.06,2.509-1.659,3.028-.43.38-.859.53-1.079.57l-.221-.74c.221-.069.51-.209.77-.43.24-.189.54-.529.74-.979.04-.09.069-.159.069-.21,0-.05-.02-.119-.06-.229l-1.789-4.457h.96Z"/><path class="cls-44" d="M369.705,529.092c0-.62-.02-1.12-.04-1.579h.79l.04.829h.02c.36-.59.93-.939,1.719-.939,1.17,0,2.049.989,2.049,2.459,0,1.738-1.059,2.599-2.198,2.599-.64,0-1.199-.28-1.489-.76h-.021v2.628h-.869v-5.236ZM370.574,530.381c0,.13.021.25.04.359.16.61.69,1.029,1.319,1.029.93,0,1.47-.759,1.47-1.868,0-.97-.51-1.8-1.439-1.8-.6,0-1.159.43-1.329,1.09-.03.11-.061.24-.061.359v.83Z"/><path class="cls-44" d="M378.073,532.35l-.07-.609h-.029c-.271.38-.79.72-1.479.72-.979,0-1.479-.69-1.479-1.39,0-1.169,1.04-1.809,2.908-1.799v-.101c0-.399-.109-1.119-1.099-1.119-.45,0-.92.14-1.26.36l-.2-.58c.4-.26.979-.43,1.59-.43,1.479,0,1.839,1.01,1.839,1.979v1.81c0,.42.02.829.08,1.159h-.8ZM377.943,529.881c-.96-.02-2.049.15-2.049,1.09,0,.569.38.839.829.839.63,0,1.029-.399,1.17-.81.029-.09.05-.189.05-.279v-.84Z"/><path class="cls-44" d="M380.095,531.451c.26.17.72.35,1.159.35.64,0,.94-.319.94-.72,0-.42-.25-.649-.9-.89-.869-.31-1.279-.789-1.279-1.369,0-.779.63-1.419,1.67-1.419.489,0,.919.14,1.188.3l-.22.64c-.189-.12-.539-.28-.989-.28-.52,0-.81.3-.81.66,0,.399.29.58.92.819.839.32,1.269.739,1.269,1.459,0,.85-.659,1.449-1.809,1.449-.529,0-1.02-.13-1.359-.329l.22-.67Z"/><path class="cls-44" d="M384.055,531.451c.26.17.72.35,1.159.35.64,0,.94-.319.94-.72,0-.42-.25-.649-.9-.89-.869-.31-1.279-.789-1.279-1.369,0-.779.63-1.419,1.67-1.419.489,0,.919.14,1.188.3l-.22.64c-.189-.12-.539-.28-.989-.28-.52,0-.81.3-.81.66,0,.399.29.58.92.819.839.32,1.269.739,1.269,1.459,0,.85-.659,1.449-1.809,1.449-.529,0-1.02-.13-1.359-.329l.22-.67Z"/><rect class="cls-35" x="226.723" y="129.645" width="54.961" height="29.988"/><rect class="cls-31" x="226.723" y="129.645" width="55" height="30"/><line class="cls-31" x1="240.259" y1="159.645" x2="240.259" y2="129.645"/><line class="cls-31" x1="268.187" y1="129.645" x2="268.187" y2="159.645"/><line class="cls-31" x1="254.223" y1="129.645" x2="254.223" y2="159.645"/><line class="cls-31" x1="277.124" y1="129.645" x2="231.322" y2="159.645"/><line class="cls-31" x1="231.322" y1="129.645" x2="277.124" y2="159.645"/><rect class="cls-31" x="226.723" y="129.645" width="55" height="30"/><path class="cls-44" d="M233.682,172.227c-.384.192-1.151.384-2.135.384-2.279,0-3.994-1.439-3.994-4.09,0-2.531,1.715-4.246,4.222-4.246,1.007,0,1.643.216,1.919.36l-.252.851c-.396-.191-.959-.335-1.631-.335-1.895,0-3.154,1.211-3.154,3.334,0,1.979,1.139,3.25,3.106,3.25.635,0,1.283-.132,1.703-.336l.216.828Z"/><path class="cls-44" d="M240.078,169.541c0,2.146-1.487,3.082-2.89,3.082-1.571,0-2.783-1.151-2.783-2.986,0-1.943,1.271-3.082,2.878-3.082,1.667,0,2.794,1.211,2.794,2.986ZM235.472,169.6c0,1.271.732,2.231,1.763,2.231,1.007,0,1.763-.947,1.763-2.255,0-.983-.492-2.23-1.739-2.23s-1.787,1.151-1.787,2.254Z"/><path class="cls-44" d="M241.413,168.257c0-.6-.012-1.091-.048-1.571h.936l.06.959h.024c.288-.552.959-1.091,1.919-1.091.803,0,2.051.479,2.051,2.47v3.466h-1.056v-3.346c0-.936-.348-1.715-1.343-1.715-.695,0-1.235.492-1.415,1.079-.048.132-.072.312-.072.492v3.49h-1.056v-4.234Z"/><path class="cls-44" d="M253.086,163.976v7.016c0,.516.012,1.103.048,1.499h-.948l-.048-1.007h-.024c-.324.647-1.032,1.139-1.979,1.139-1.403,0-2.483-1.187-2.483-2.95-.012-1.931,1.188-3.118,2.603-3.118.888,0,1.487.419,1.751.887h.024v-3.466h1.056ZM252.03,169.049c0-.132-.012-.312-.048-.444-.156-.672-.731-1.224-1.523-1.224-1.091,0-1.739.959-1.739,2.243,0,1.175.576,2.146,1.715,2.146.708,0,1.355-.468,1.547-1.259.036-.144.048-.288.048-.456v-1.007Z"/><path class="cls-44" d="M255.429,169.78c.023,1.427.936,2.015,1.99,2.015.756,0,1.212-.132,1.607-.3l.18.756c-.372.168-1.007.36-1.931.36-1.787,0-2.854-1.175-2.854-2.927s1.031-3.13,2.723-3.13c1.895,0,2.398,1.667,2.398,2.734,0,.216-.024.384-.036.492h-4.077ZM258.523,169.024c.012-.671-.275-1.715-1.463-1.715-1.067,0-1.535.983-1.619,1.715h3.082Z"/><path class="cls-44" d="M260.853,168.257c0-.6-.012-1.091-.048-1.571h.936l.061.959h.023c.288-.552.96-1.091,1.919-1.091.804,0,2.051.479,2.051,2.47v3.466h-1.056v-3.346c0-.936-.348-1.715-1.343-1.715-.695,0-1.235.492-1.415,1.079-.048.132-.072.312-.072.492v3.49h-1.056v-4.234Z"/><path class="cls-44" d="M267.368,171.411c.312.204.864.42,1.392.42.768,0,1.127-.384,1.127-.863,0-.504-.3-.78-1.079-1.067-1.043-.372-1.535-.948-1.535-1.644,0-.935.756-1.703,2.003-1.703.588,0,1.104.167,1.428.359l-.265.768c-.228-.144-.647-.335-1.187-.335-.624,0-.972.36-.972.792,0,.479.348.695,1.104.983,1.007.384,1.522.888,1.522,1.751,0,1.02-.791,1.739-2.171,1.739-.635,0-1.223-.156-1.631-.396l.264-.804Z"/><path class="cls-44" d="M272.853,169.78c.023,1.427.936,2.015,1.99,2.015.756,0,1.212-.132,1.607-.3l.18.756c-.372.168-1.007.36-1.931.36-1.787,0-2.854-1.175-2.854-2.927s1.031-3.13,2.723-3.13c1.895,0,2.398,1.667,2.398,2.734,0,.216-.024.384-.036.492h-4.077ZM275.946,169.024c.012-.671-.275-1.715-1.463-1.715-1.067,0-1.535.983-1.619,1.715h3.082Z"/><path class="cls-44" d="M278.276,168.497c0-.684-.012-1.271-.048-1.811h.923l.036,1.139h.048c.264-.779.899-1.271,1.607-1.271.12,0,.204.012.3.036v.996c-.108-.024-.216-.036-.359-.036-.744,0-1.271.564-1.416,1.355-.023.144-.048.312-.048.492v3.094h-1.043v-3.994Z"/><rect class="cls-40" x="226.723" y="296.616" width="55" height="30"/><rect class="cls-31" x="226.723" y="296.616" width="55" height="30"/><line class="cls-31" x1="240.259" y1="326.616" x2="240.259" y2="296.616"/><line class="cls-31" x1="268.187" y1="296.616" x2="268.187" y2="326.616"/><line class="cls-31" x1="254.223" y1="296.616" x2="254.223" y2="326.616"/><line class="cls-31" x1="277.124" y1="296.616" x2="231.322" y2="326.616"/><line class="cls-31" x1="231.322" y1="296.616" x2="277.124" y2="326.616"/><rect class="cls-31" x="226.723" y="296.616" width="55" height="30"/><path class="cls-44" d="M231.943,286.705h-3.142v2.915h3.502v.875h-4.545v-8.083h4.365v.875h-3.322v2.555h3.142v.863Z"/><path class="cls-44" d="M233.948,284.69l1.14,3.262c.192.527.348,1.007.468,1.487h.036c.132-.48.3-.96.492-1.487l1.127-3.262h1.104l-2.279,5.805h-1.007l-2.207-5.805h1.127Z"/><path class="cls-44" d="M242.479,290.495l-.084-.731h-.036c-.324.456-.947.863-1.775.863-1.175,0-1.775-.828-1.775-1.667,0-1.403,1.247-2.171,3.49-2.159v-.12c0-.479-.132-1.343-1.319-1.343-.54,0-1.103.168-1.511.432l-.24-.695c.48-.312,1.176-.516,1.907-.516,1.775,0,2.207,1.211,2.207,2.375v2.171c0,.503.024.995.096,1.391h-.959ZM242.323,287.532c-1.151-.024-2.459.18-2.459,1.307,0,.684.456,1.008.996,1.008.755,0,1.235-.48,1.403-.972.036-.108.06-.228.06-.336v-1.007Z"/><path class="cls-44" d="M245.048,286.585c0-.744-.024-1.343-.048-1.895h.947l.048.995h.024c.432-.708,1.115-1.127,2.062-1.127,1.403,0,2.459,1.187,2.459,2.95,0,2.087-1.271,3.118-2.639,3.118-.768,0-1.439-.336-1.787-.912h-.024v3.154h-1.043v-6.284ZM246.092,288.132c0,.156.024.3.048.432.192.732.828,1.235,1.583,1.235,1.116,0,1.763-.911,1.763-2.243,0-1.163-.612-2.159-1.727-2.159-.72,0-1.391.516-1.595,1.307-.036.132-.072.288-.072.432v.995Z"/><path class="cls-44" d="M257.13,287.545c0,2.146-1.487,3.082-2.891,3.082-1.571,0-2.783-1.151-2.783-2.986,0-1.943,1.272-3.082,2.878-3.082,1.668,0,2.795,1.211,2.795,2.986ZM252.525,287.604c0,1.271.731,2.231,1.763,2.231,1.008,0,1.764-.947,1.764-2.255,0-.983-.492-2.23-1.739-2.23s-1.787,1.151-1.787,2.254Z"/><path class="cls-44" d="M258.465,286.501c0-.684-.013-1.271-.048-1.811h.923l.036,1.139h.048c.264-.779.899-1.271,1.607-1.271.12,0,.204.012.3.036v.996c-.108-.024-.216-.036-.359-.036-.744,0-1.271.564-1.416,1.355-.023.144-.048.312-.048.492v3.094h-1.043v-3.994Z"/><path class="cls-44" d="M265.543,290.495l-.084-.731h-.036c-.323.456-.947.863-1.774.863-1.176,0-1.775-.828-1.775-1.667,0-1.403,1.247-2.171,3.49-2.159v-.12c0-.479-.132-1.343-1.319-1.343-.54,0-1.104.168-1.511.432l-.24-.695c.479-.312,1.175-.516,1.907-.516,1.774,0,2.206,1.211,2.206,2.375v2.171c0,.503.024.995.097,1.391h-.96ZM265.387,287.532c-1.151-.024-2.458.18-2.458,1.307,0,.684.456,1.008.995,1.008.756,0,1.235-.48,1.403-.972.036-.108.06-.228.06-.336v-1.007Z"/><path class="cls-44" d="M269.336,283.023v1.667h1.512v.803h-1.512v3.13c0,.72.204,1.127.792,1.127.275,0,.479-.036.611-.072l.048.792c-.204.084-.527.144-.936.144-.491,0-.888-.156-1.14-.444-.3-.312-.407-.828-.407-1.511v-3.167h-.899v-.803h.899v-1.391l1.031-.276Z"/><path class="cls-44" d="M277.218,287.545c0,2.146-1.487,3.082-2.891,3.082-1.571,0-2.782-1.151-2.782-2.986,0-1.943,1.271-3.082,2.878-3.082,1.668,0,2.795,1.211,2.795,2.986ZM272.612,287.604c0,1.271.731,2.231,1.763,2.231,1.008,0,1.764-.947,1.764-2.255,0-.983-.492-2.23-1.739-2.23s-1.787,1.151-1.787,2.254Z"/><path class="cls-44" d="M278.553,286.501c0-.684-.013-1.271-.048-1.811h.923l.036,1.139h.048c.264-.779.899-1.271,1.607-1.271.12,0,.204.012.3.036v.996c-.108-.024-.216-.036-.359-.036-.744,0-1.271.564-1.416,1.355-.023.144-.048.312-.048.492v3.094h-1.043v-3.994Z"/><rect class="cls-48" x="226.723" y="389.534" width="55" height="30"/><rect class="cls-31" x="226.723" y="389.534" width="55" height="30"/><line class="cls-31" x1="240.259" y1="419.534" x2="240.259" y2="389.534"/><line class="cls-31" x1="268.187" y1="389.534" x2="268.187" y2="419.534"/><line class="cls-31" x1="254.223" y1="389.534" x2="254.223" y2="419.534"/><line class="cls-31" x1="277.124" y1="389.534" x2="231.322" y2="419.534"/><line class="cls-31" x1="231.322" y1="389.534" x2="277.124" y2="419.534"/><rect class="cls-31" x="226.723" y="389.534" width="55" height="30"/><g id="Fan"><path class="cls-38" d="M251.04,26.072c-1.233.946-2.029,2.434-2.029,4.109,0,2.858,2.316,5.174,5.174,5.174s5.174-2.316,5.174-5.174-2.316-5.174-5.174-5.174c-1.183,0-2.274.397-3.145,1.066"/><ellipse class="cls-6" cx="254.223" cy="30.181" rx="18" ry="19.107"/><path class="cls-52" d="M239.36,28.521c2.099,3.987,4.415-.55,8.131.134,4.012.738,9.786-3.739,3.972-8.48-1.756-1.432-5.699-2.602-9.16.742-2.933,2.834-3.999,5.599-2.943,7.604Z"/><path class="cls-52" d="M269.108,31.856c-1.94-4.066-4.433.375-8.12-.456-3.979-.896-9.927,3.349-4.304,8.316,1.698,1.5,5.591,2.826,9.182-.379,3.043-2.716,4.217-5.436,3.242-7.481Z"/><path class="cls-52" d="M252.363,45.584c4.176-1.69-.105-4.447.947-8.077,1.136-3.918-2.742-10.111-8.041-4.8-1.6,1.604-3.159,5.41-.177,9.188,2.527,3.202,5.171,4.538,7.271,3.689Z"/><path class="cls-52" d="M256.218,14.793c-4.128,1.704.138,4.411-.878,8.018-1.096,3.894,2.795,10.011,8.008,4.707,1.574-1.602,3.091-5.388.106-9.115-2.529-3.159-5.161-4.467-7.237-3.61Z"/></g><line class="cls-11" x1="226.04" y1="57.711" x2="282.406" y2="57.712"/><line class="cls-29" x1="253.269" y1="63.189" x2="253.269" y2="52.234"/><line class="cls-29" x1="241.736" y1="63.189" x2="241.736" y2="52.234"/><line class="cls-29" x1="266.823" y1="63.189" x2="266.823" y2="52.234"/><line class="cls-28" x1="159.374" y1="57.632" x2="219.912" y2="57.632"/><path class="cls-46" d="M225.947,57.632c-2.84,1.054-6.363,2.852-8.547,4.756l1.72-4.756-1.72-4.755c2.184,1.904,5.708,3.702,8.547,4.755Z"/><circle class="cls-19" cx="441.847" cy="237.848" r="9.352"/><line class="cls-37" x1="418.609" y1="237.874" x2="432.496" y2="237.874"/><path class="cls-44" d="M228.543,71.068c.636-.096,1.391-.168,2.219-.168,1.499,0,2.566.348,3.274,1.007.72.66,1.14,1.595,1.14,2.902,0,1.319-.408,2.399-1.164,3.143-.755.755-2.003,1.163-3.574,1.163-.744,0-1.368-.036-1.895-.096v-7.952ZM229.587,78.216c.264.048.647.06,1.055.06,2.231,0,3.442-1.248,3.442-3.43.012-1.907-1.067-3.118-3.274-3.118-.54,0-.947.048-1.223.108v6.38Z"/><path class="cls-44" d="M236.499,75.05c0-.684-.012-1.271-.048-1.811h.923l.036,1.139h.048c.264-.779.899-1.271,1.607-1.271.12,0,.204.012.3.036v.996c-.108-.024-.216-.036-.36-.036-.744,0-1.271.564-1.416,1.355-.024.144-.048.312-.048.492v3.094h-1.043v-3.994Z"/><path class="cls-44" d="M241.107,73.239l1.271,3.43c.132.384.276.839.372,1.187h.024c.108-.348.228-.792.372-1.211l1.151-3.406h1.115l-1.583,4.138c-.756,1.991-1.271,3.01-1.991,3.634-.516.456-1.031.636-1.295.684l-.264-.887c.264-.084.612-.252.924-.516.288-.228.647-.636.887-1.176.048-.108.084-.192.084-.251,0-.06-.024-.144-.072-.276l-2.147-5.349h1.151Z"/><path class="cls-44" d="M254.604,78.78c-.384.192-1.151.384-2.135.384-2.279,0-3.994-1.439-3.994-4.09,0-2.531,1.715-4.246,4.222-4.246,1.008,0,1.643.216,1.919.36l-.252.851c-.396-.191-.96-.335-1.631-.335-1.895,0-3.154,1.211-3.154,3.334,0,1.979,1.139,3.25,3.106,3.25.636,0,1.283-.132,1.703-.336l.216.828Z"/><path class="cls-44" d="M260.999,76.094c0,2.146-1.486,3.082-2.89,3.082-1.571,0-2.783-1.151-2.783-2.986,0-1.943,1.271-3.082,2.879-3.082,1.667,0,2.794,1.211,2.794,2.986ZM256.394,76.153c0,1.271.732,2.231,1.764,2.231,1.007,0,1.763-.947,1.763-2.255,0-.983-.491-2.23-1.739-2.23s-1.787,1.151-1.787,2.254Z"/><path class="cls-44" d="M267.587,76.094c0,2.146-1.486,3.082-2.89,3.082-1.571,0-2.783-1.151-2.783-2.986,0-1.943,1.271-3.082,2.879-3.082,1.667,0,2.794,1.211,2.794,2.986ZM262.982,76.153c0,1.271.732,2.231,1.764,2.231,1.007,0,1.763-.947,1.763-2.255,0-.983-.491-2.23-1.739-2.23s-1.787,1.151-1.787,2.254Z"/><path class="cls-44" d="M268.922,70.529h1.056v8.515h-1.056v-8.515Z"/><path class="cls-44" d="M272.342,76.334c.024,1.427.936,2.015,1.991,2.015.755,0,1.211-.132,1.606-.3l.181.756c-.372.168-1.008.36-1.932.36-1.787,0-2.854-1.175-2.854-2.927s1.032-3.13,2.723-3.13c1.896,0,2.399,1.667,2.399,2.734,0,.216-.024.384-.036.492h-4.078ZM275.437,75.578c.012-.671-.276-1.715-1.464-1.715-1.067,0-1.535.983-1.619,1.715h3.083Z"/><path class="cls-44" d="M277.766,75.05c0-.684-.012-1.271-.048-1.811h.924l.036,1.139h.048c.264-.779.899-1.271,1.606-1.271.12,0,.204.012.301.036v.996c-.108-.024-.217-.036-.36-.036-.743,0-1.271.564-1.415,1.355-.024.144-.048.312-.048.492v3.094h-1.044v-3.994Z"/><line class="cls-22" x1="126.665" y1="215.954" x2="126.665" y2="218.798"/><line class="cls-22" x1="49.159" y1="217.182" x2="49.159" y2="219.386"/><line class="cls-18" x1="87.253" y1="192.281" x2="15.413" y2="192.281"/><line class="cls-22" x1="126.673" y1="256.663" x2="126.674" y2="272.743"/><polygon class="cls-9" points="126.447 273.929 129.962 268.528 122.973 268.501 126.447 273.929"/><polygon class="cls-9" points="126.447 273.946 129.962 279.347 122.973 279.375 126.447 273.946"/><line class="cls-22" x1="49.166" y1="256.662" x2="49.166" y2="272.848"/><line class="cls-43" x1="127.1" y1="284.913" x2="48.546" y2="284.913"/><line class="cls-22" x1="86.585" y1="284.94" x2="86.599" y2="301.901"/><line class="cls-22" x1="87.251" y1="155.56" x2="87.252" y2="162.222"/><line class="cls-43" x1="126.757" y1="197.845" x2="48.577" y2="197.845"/><circle class="cls-37" cx="49.166" cy="210.54" r="3.261"/><line class="cls-37" x1="48.932" y1="205.542" x2="54.104" y2="210.802"/><line class="cls-37" x1="44.168" y1="210.802" x2="49.387" y2="205.541"/><line class="cls-32" x1="49.162" y1="206.086" x2="49.163" y2="202.764"/><line class="cls-32" x1="49.16" y1="217.181" x2="49.16" y2="213.944"/><polygon class="cls-9" points="49.144 273.929 52.66 268.528 45.671 268.501 49.144 273.929"/><polygon class="cls-9" points="49.144 273.946 52.66 279.347 45.671 279.375 49.144 273.946"/><line class="cls-14" x1="15.415" y1="191.772" x2="15.412" y2="262.379"/><line class="cls-2" x1="15.407" y1="221.344" x2="15.407" y2="204.181"/><path class="cls-50" d="M15.407,225.871c.79-2.13,2.139-4.772,3.567-6.411l-3.567,1.29-3.566-1.29c1.428,1.638,2.777,4.281,3.566,6.411Z"/><polyline class="cls-24" points="96.617 180.571 87.27 192.877 77.894 180.575"/><polyline class="cls-39" points="96.466 180.8 96.466 162.621 78.04 162.621 78.04 180.8"/><line class="cls-37" x1="87.253" y1="165.318" x2="87.253" y2="180.074"/><path class="cls-27" d="M67.49,238.337c0,3.85-1.198,7.426-3.234,10.369-3.302,4.808-8.829,7.956-15.091,7.956s-11.806-3.148-15.108-7.956c-2.019-2.943-3.217-6.519-3.217-10.369,0-8.23,5.407-15.177,12.867-17.504h.017c1.728-.53,3.542-.821,5.441-.821s3.713.291,5.441.821c7.46,2.327,12.884,9.274,12.884,17.504Z"/><path class="cls-27" d="M64.257,248.616c-3.302,4.753-8.829,7.865-15.091,7.865s-11.806-3.112-15.108-7.865l9.65-27.552h.017c1.728-.524,3.542-.812,5.441-.812s3.713.288,5.441.812l9.65,27.552Z"/><line class="cls-27" x1="49.166" y1="229.211" x2="49.166" y2="244.831"/><line class="cls-27" x1="56.975" y1="244.831" x2="41.356" y2="244.831"/><circle class="cls-37" cx="126.674" cy="209.924" r="3.261"/><line class="cls-37" x1="126.44" y1="204.925" x2="131.612" y2="210.186"/><line class="cls-37" x1="121.676" y1="210.186" x2="126.895" y2="204.925"/><line class="cls-32" x1="126.67" y1="205.469" x2="126.671" y2="202.148"/><line class="cls-32" x1="126.668" y1="216.564" x2="126.668" y2="213.328"/><path class="cls-27" d="M144.999,237.721c0,3.85-1.198,7.426-3.234,10.369-3.302,4.808-8.829,7.956-15.091,7.956s-11.806-3.148-15.108-7.956c-2.019-2.943-3.217-6.519-3.217-10.369,0-8.23,5.407-15.177,12.867-17.504h.017c1.728-.53,3.542-.821,5.441-.821s3.713.291,5.441.821c7.46,2.327,12.884,9.274,12.884,17.504Z"/><path class="cls-27" d="M141.765,248c-3.302,4.753-8.829,7.865-15.091,7.865s-11.806-3.112-15.108-7.865l9.65-27.552h.017c1.728-.524,3.542-.812,5.441-.812s3.713.288,5.441.812l9.65,27.552Z"/><line class="cls-27" x1="126.674" y1="228.595" x2="126.674" y2="244.214"/><line class="cls-27" x1="134.483" y1="244.214" x2="118.864" y2="244.214"/><line class="cls-22" x1="49.166" y1="197.503" x2="49.166" y2="202.764"/><line class="cls-22" x1="126.674" y1="197.334" x2="126.674" y2="202.148"/><line class="cls-22" x1="104.658" y1="164.318" x2="104.658" y2="197.845"/><line class="cls-22" x1="96.962" y1="164.902" x2="104.083" y2="164.902"/><path class="cls-45" d="M436.315,235.277h-1.846v-.666h4.492v.666h-1.854v5.401h-.792v-5.401Z"/><path class="cls-45" d="M443.633,240.481c-.288.145-.864.288-1.603.288-1.711,0-2.998-1.08-2.998-3.069,0-1.9,1.287-3.188,3.169-3.188.756,0,1.233.162,1.44.271l-.189.639c-.297-.144-.72-.252-1.224-.252-1.423,0-2.368.909-2.368,2.503,0,1.485.855,2.439,2.332,2.439.477,0,.963-.099,1.278-.252l.162.621Z"/><path class="cls-45" d="M447.754,237.834h-2.358v2.188h2.629v.657h-3.412v-6.067h3.276v.657h-2.493v1.917h2.358v.648Z"/><path class="cls-44" d="M106.264,246.331c.192.384.384,1.151.384,2.135,0,2.279-1.439,3.995-4.089,3.995-2.531,0-4.246-1.715-4.246-4.222,0-1.007.216-1.643.36-1.919l.851.252c-.191.396-.335.959-.335,1.631,0,1.895,1.212,3.154,3.334,3.154,1.979,0,3.25-1.14,3.25-3.107,0-.635-.132-1.283-.336-1.703l.828-.216Z"/><path class="cls-44" d="M103.577,239.936c2.146,0,3.083,1.486,3.083,2.89,0,1.571-1.151,2.783-2.986,2.783-1.943,0-3.082-1.271-3.082-2.878,0-1.667,1.21-2.794,2.986-2.794ZM103.637,244.541c1.271,0,2.231-.732,2.231-1.764,0-1.007-.947-1.763-2.255-1.763-.983,0-2.23.492-2.23,1.739s1.151,1.787,2.254,1.787Z"/><path class="cls-44" d="M102.293,238.601c-.6,0-1.091.012-1.571.048v-.923l.936-.048v-.036c-.552-.324-1.067-.864-1.067-1.823,0-.792.479-1.391,1.163-1.643v-.024c-.324-.18-.576-.408-.755-.647-.264-.348-.408-.731-.408-1.283,0-.768.503-1.907,2.519-1.907h3.418s0,1.031,0,1.031h-3.286c-1.115,0-1.787.408-1.787,1.26,0,.6.444,1.067.959,1.247.144.048.336.084.528.084h3.586s0,1.031,0,1.031h-3.478c-.923,0-1.595.408-1.595,1.211,0,.66.528,1.14,1.056,1.308.156.06.335.084.516.084h3.502s0,1.031,0,1.031h-4.234Z"/><path class="cls-44" d="M102.617,228.593c-.744,0-1.343.024-1.895.048v-.947l.995-.048v-.024c-.708-.432-1.127-1.115-1.127-2.062,0-1.403,1.187-2.459,2.95-2.459,2.087,0,3.119,1.271,3.119,2.638,0,.768-.336,1.439-.912,1.787v.024h3.154v1.043h-6.284ZM104.164,227.549c.156,0,.3-.024.432-.048.732-.192,1.235-.828,1.235-1.584,0-1.115-.912-1.762-2.243-1.762-1.163,0-2.158.611-2.158,1.727,0,.72.516,1.391,1.307,1.595.132.036.288.072.432.072h.995Z"/><path class="cls-44" d="M27.957,246.331c.192.384.384,1.151.384,2.135,0,2.279-1.439,3.995-4.089,3.995-2.531,0-4.246-1.715-4.246-4.222,0-1.007.216-1.643.36-1.919l.851.252c-.191.396-.335.959-.335,1.631,0,1.895,1.212,3.154,3.334,3.154,1.979,0,3.25-1.14,3.25-3.107,0-.635-.132-1.283-.336-1.703l.828-.216Z"/><path class="cls-44" d="M25.27,239.936c2.146,0,3.083,1.486,3.083,2.89,0,1.571-1.151,2.783-2.986,2.783-1.943,0-3.082-1.271-3.082-2.878,0-1.667,1.21-2.794,2.986-2.794ZM25.33,244.541c1.271,0,2.231-.732,2.231-1.764,0-1.007-.947-1.763-2.255-1.763-.983,0-2.23.492-2.23,1.739s1.151,1.787,2.254,1.787Z"/><path class="cls-44" d="M23.986,238.601c-.6,0-1.091.012-1.571.048v-.923l.936-.048v-.036c-.552-.324-1.067-.864-1.067-1.823,0-.792.479-1.391,1.163-1.643v-.024c-.324-.18-.576-.408-.755-.647-.264-.348-.408-.731-.408-1.283,0-.768.503-1.907,2.519-1.907h3.418s0,1.031,0,1.031h-3.286c-1.115,0-1.787.408-1.787,1.26,0,.6.444,1.067.959,1.247.144.048.336.084.528.084h3.586s0,1.031,0,1.031h-3.478c-.923,0-1.595.408-1.595,1.211,0,.66.528,1.14,1.056,1.308.156.06.335.084.516.084h3.502s0,1.031,0,1.031h-4.234Z"/><path class="cls-44" d="M24.31,228.593c-.744,0-1.343.024-1.895.048v-.947l.995-.048v-.024c-.708-.432-1.127-1.115-1.127-2.062,0-1.403,1.187-2.459,2.95-2.459,2.087,0,3.119,1.271,3.119,2.638,0,.768-.336,1.439-.912,1.787v.024h3.154v1.043h-6.284ZM25.857,227.549c.156,0,.3-.024.432-.048.732-.192,1.235-.828,1.235-1.584,0-1.115-.912-1.762-2.243-1.762-1.163,0-2.158.611-2.158,1.727,0,.72.516,1.391,1.307,1.595.132.036.288.072.432.072h.995Z"/><path class="cls-44" d="M69.181,181.547c2.782,0,4.257,1.691,4.258,3.753,0,2.135-1.655,3.635-4.102,3.635-2.567,0-4.246-1.595-4.246-3.754,0-2.207,1.69-3.634,4.089-3.634ZM69.313,187.819c1.727,0,3.274-.936,3.274-2.579,0-1.655-1.523-2.59-3.358-2.59-1.607,0-3.286.839-3.286,2.579,0,1.727,1.595,2.59,3.37,2.59Z"/><path class="cls-44" d="M65.87,179.048c.36-.012.648.252.648.671,0,.372-.288.636-.648.636-.372,0-.66-.276-.66-.66,0-.396.288-.647.66-.647ZM73.306,180.223h-5.805s0-1.055,0-1.055h5.805s0,1.055,0,1.055Z"/><path class="cls-44" d="M64.791,177.416v-1.056s8.515,0,8.515,0v1.056s-8.515,0-8.515,0Z"/><path class="cls-44" d="M72.034,172.148c.288-.468.528-1.152.528-1.872,0-1.067-.564-1.69-1.38-1.69-.755,0-1.187.432-1.606,1.523-.468,1.319-1.151,2.135-2.291,2.135-1.259,0-2.195-1.043-2.195-2.614,0-.828.191-1.427.395-1.787l.852.288c-.144.264-.383.803-.383,1.535,0,1.103.66,1.523,1.211,1.523.755,0,1.127-.492,1.559-1.607.527-1.367,1.187-2.063,2.375-2.063,1.247,0,2.327.923,2.327,2.83,0,.779-.228,1.631-.516,2.062l-.875-.263Z"/><path class="cls-44" d="M70.595,165.464c1.427-.024,2.015-.936,2.015-1.991,0-.755-.132-1.211-.3-1.607l.756-.18c.168.372.36,1.007.36,1.931,0,1.787-1.175,2.854-2.927,2.855-1.751,0-3.13-1.032-3.13-2.723,0-1.895,1.667-2.399,2.734-2.399.216,0,.384.024.492.036v4.078ZM69.839,162.37c-.671-.012-1.715.276-1.715,1.463,0,1.067.983,1.535,1.715,1.619v-3.083Z"/><path class="cls-44" d="M69.395,160.04c-.744,0-1.343.024-1.895.048v-.947l.995-.048v-.024c-.708-.432-1.127-1.115-1.127-2.062,0-1.403,1.187-2.459,2.95-2.459,2.087,0,3.118,1.271,3.118,2.638,0,.768-.336,1.439-.912,1.787v.024h3.154v1.043h-6.284ZM70.942,158.996c.156,0,.3-.024.432-.048.732-.192,1.235-.828,1.235-1.583,0-1.116-.911-1.763-2.243-1.763-1.163,0-2.159.612-2.159,1.727,0,.72.516,1.391,1.307,1.595.132.036.288.072.432.072h.995Z"/><path class="cls-3" d="M313.219,72.574h-22.69l2.25-7h.45c2.08,2.45,5.18,4,8.64,4s6.57-1.55,8.65-4h.45l2.25,7Z"/><path class="cls-33" d="M316.089,47.154v8.31c0,.15-.12.27-.27.27h-2.88c.18.8.28,1.63.28,2.49,0,2.81-1.02,5.37-2.7,7.35-2.08,2.45-5.19,4-8.65,4s-6.56-1.55-8.64-4c-1.68-1.98-2.7-4.54-2.7-7.35,0-6.25,5.06-11.32,11.3-11.34h13.99c.15,0,.27.12.27.27Z"/><line class="cls-8" x1="301.873" y1="57.733" x2="281.401" y2="57.73"/><line class="cls-15" x1="86.599" y1="294.882" x2="86.599" y2="299.393"/><path class="cls-47" d="M86.599,288.847c-1.054,2.84-2.852,6.363-4.756,8.547l4.756-1.72,4.755,1.72c-1.904-2.184-3.702-5.708-4.755-8.547Z"/><line class="cls-21" x1="369.573" y1="70.288" x2="369.573" y2="68.258"/><line class="cls-21" x1="369.573" y1="67.274" x2="369.573" y2="65.243"/><path class="cls-49" d="M369.573,75.83c.968-2.608,2.618-5.843,4.367-7.848l-4.367,1.579-4.366-1.579c1.749,2.005,3.399,5.241,4.366,7.848Z"/><line class="cls-42" x1="286.392" y1="511.286" x2="318.966" y2="511.288"/><path class="cls-51" d="M280.357,511.286c2.84,1.054,6.363,2.852,8.547,4.756l-1.72-4.756,1.72-4.755c-2.184,1.904-5.708,3.702-8.548,4.755Z"/><path class="cls-44" d="M321.61,534.033c.419-.069.969-.13,1.668-.13.859,0,1.49.2,1.89.56.37.32.589.81.589,1.409,0,.61-.18,1.09-.52,1.439-.459.49-1.209.739-2.059.739-.26,0-.5-.01-.699-.06v2.698h-.869v-6.656ZM322.48,537.281c.189.051.43.07.719.07,1.05,0,1.689-.51,1.689-1.439,0-.89-.629-1.319-1.589-1.319-.38,0-.67.03-.819.07v2.618Z"/><path class="cls-44" d="M330.798,539.37c0,.5.01.939.039,1.319h-.779l-.05-.789h-.02c-.23.39-.74.899-1.6.899-.76,0-1.669-.42-1.669-2.119v-2.828h.88v2.679c0,.919.279,1.539,1.079,1.539.59,0,.999-.41,1.159-.8.05-.13.08-.29.08-.45v-2.968h.88v3.518Z"/><path class="cls-44" d="M332.26,537.162c0-.5-.01-.91-.04-1.31h.77l.04.779h.03c.27-.46.72-.89,1.519-.89.66,0,1.16.4,1.37.97h.02c.15-.27.34-.479.54-.63.29-.22.609-.34,1.069-.34.64,0,1.589.42,1.589,2.099v2.849h-.859v-2.738c0-.93-.34-1.489-1.05-1.489-.499,0-.89.37-1.039.8-.04.12-.07.279-.07.439v2.988h-.859v-2.898c0-.77-.34-1.329-1.01-1.329-.549,0-.949.439-1.089.88-.05.13-.07.279-.07.43v2.918h-.859v-3.527Z"/><path class="cls-44" d="M340.6,537.431c0-.62-.02-1.119-.04-1.579h.79l.04.829h.02c.36-.59.93-.939,1.719-.939,1.17,0,2.049.989,2.049,2.459,0,1.739-1.059,2.599-2.198,2.599-.64,0-1.199-.28-1.489-.76h-.021v2.629h-.869v-5.237ZM341.469,538.72c0,.13.021.25.04.36.16.609.69,1.029,1.319,1.029.93,0,1.47-.76,1.47-1.869,0-.97-.51-1.799-1.439-1.799-.6,0-1.159.43-1.329,1.089-.03.11-.061.24-.061.36v.829Z"/><path class="cls-3" d="M321.86,532.319h22.69l-2.25-7h-.45c-2.08,2.45-5.18,4-8.64,4s-6.57-1.55-8.65-4h-.45l-2.25,7Z"/><path class="cls-33" d="M318.99,506.899v8.31c0,.15.12.27.27.27h2.88c-.18.8-.28,1.63-.28,2.49,0,2.81,1.02,5.37,2.7,7.35,2.08,2.45,5.19,4,8.65,4s6.56-1.55,8.64-4c1.68-1.98,2.7-4.54,2.7-7.35,0-6.25-5.06-11.32-11.3-11.34h-13.99c-.15,0-.27.12-.27.27Z"/><line class="cls-12" x1="361.376" y1="518.369" x2="333.134" y2="518.282"/><line class="cls-21" x1="147.585" y1="77.428" x2="147.585" y2="79.459"/><line class="cls-21" x1="147.585" y1="80.443" x2="147.585" y2="82.474"/><path class="cls-49" d="M147.585,71.887c-.968,2.607-2.618,5.843-4.367,7.848l4.367-1.579,4.366,1.579c-1.749-2.005-3.399-5.241-4.366-7.848Z"/><line class="cls-25" x1="104.658" y1="177.222" x2="104.658" y2="194.386"/><path class="cls-47" d="M104.658,172.696c-.79,2.13-2.139,4.772-3.567,6.411l3.567-1.29,3.566,1.29c-1.428-1.638-2.777-4.281-3.566-6.411Z"/><rect class="cls-41" x="41" y="249.338" width="16.332" height="4.058"/><line class="cls-41" x1="57.332" y1="249.338" x2="57.332" y2="253.396"/><line class="cls-41" x1="44.266" y1="249.338" x2="44.266" y2="253.396"/><line class="cls-41" x1="50.799" y1="249.048" x2="50.799" y2="253.106"/><line class="cls-41" x1="47.532" y1="249.534" x2="47.532" y2="253.592"/><line class="cls-41" x1="54.065" y1="249.048" x2="54.065" y2="253.106"/><line class="cls-41" x1="52.432" y1="249.534" x2="52.432" y2="253.592"/><line class="cls-41" x1="55.698" y1="249.338" x2="55.698" y2="253.396"/><line class="cls-41" x1="49.166" y1="249.338" x2="49.166" y2="253.396"/><line class="cls-41" x1="45.899" y1="249.254" x2="45.899" y2="253.312"/><line class="cls-41" x1="42.633" y1="249.338" x2="42.633" y2="253.396"/><line class="cls-41" x1="41" y1="249.048" x2="41" y2="253.106"/><rect class="cls-41" x="118.499" y="248.753" width="16.332" height="4.058"/><line class="cls-41" x1="134.831" y1="248.753" x2="134.831" y2="252.811"/><line class="cls-41" x1="121.766" y1="248.753" x2="121.766" y2="252.811"/><line class="cls-41" x1="128.298" y1="248.463" x2="128.298" y2="252.521"/><line class="cls-41" x1="125.032" y1="248.949" x2="125.032" y2="253.007"/><line class="cls-41" x1="131.565" y1="248.463" x2="131.565" y2="252.521"/><line class="cls-41" x1="129.931" y1="248.949" x2="129.932" y2="253.007"/><line class="cls-41" x1="133.198" y1="248.753" x2="133.198" y2="252.811"/><line class="cls-41" x1="126.665" y1="248.753" x2="126.665" y2="252.811"/><line class="cls-41" x1="123.399" y1="248.669" x2="123.399" y2="252.727"/><line class="cls-41" x1="120.132" y1="248.753" x2="120.132" y2="252.811"/><line class="cls-41" x1="118.499" y1="248.463" x2="118.499" y2="252.521"/><path class="cls-14" d="M53.242,262.232c0-1.839-1.825-3.329-4.076-3.329s-4.076,1.491-4.076,3.329"/><path class="cls-14" d="M130.75,262.232c0-1.839-1.825-3.329-4.076-3.329s-4.076,1.491-4.076,3.329"/><line class="cls-14" x1="45.345" y1="261.649" x2="14.916" y2="261.649"/><line class="cls-14" x1="63.28" y1="261.749" x2="52.668" y2="261.749"/><line class="cls-18" x1="140.815" y1="261.721" x2="130.203" y2="261.721"/><line class="cls-18" x1="122.958" y1="261.719" x2="62.536" y2="261.719"/><line class="cls-4" x1="63.282" y1="256.73" x2="63.282" y2="258.802"/><path class="cls-50" d="M63.282,253.713c-.527,1.42-1.426,3.182-2.378,4.274l2.378-.86,2.377.86c-.952-1.092-1.851-2.854-2.377-4.274Z"/><line class="cls-4" x1="140.295" y1="258.496" x2="140.295" y2="260.568"/><path class="cls-50" d="M140.295,255.479c-.527,1.42-1.426,3.182-2.378,4.274l2.378-.86,2.377.86c-.952-1.092-1.851-2.854-2.377-4.274Z"/><line class="cls-22" x1="49.111" y1="279.413" x2="49.111" y2="285.424"/><line class="cls-22" x1="126.674" y1="279.413" x2="126.674" y2="285.424"/><path class="cls-44" d="M231.339,428.365h-3.142v2.915h3.502v.875h-4.545v-8.083h4.365v.875h-3.322v2.555h3.142v.863Z"/><path class="cls-44" d="M237.111,431.939c-.276.145-.887.336-1.667.336-1.751,0-2.891-1.188-2.891-2.962,0-1.787,1.224-3.083,3.119-3.083.624,0,1.175.156,1.463.3l-.24.815c-.252-.144-.647-.275-1.223-.275-1.332,0-2.051.983-2.051,2.194,0,1.344.864,2.171,2.015,2.171.6,0,.996-.155,1.295-.287l.18.791Z"/><path class="cls-44" d="M243.53,429.205c0,2.146-1.487,3.082-2.89,3.082-1.571,0-2.783-1.151-2.783-2.986,0-1.942,1.271-3.082,2.878-3.082,1.667,0,2.794,1.211,2.794,2.986ZM238.924,429.264c0,1.271.732,2.231,1.763,2.231,1.007,0,1.763-.947,1.763-2.255,0-.983-.492-2.23-1.739-2.23s-1.787,1.151-1.787,2.254Z"/><path class="cls-44" d="M244.865,427.921c0-.6-.012-1.092-.048-1.571h.936l.06.96h.024c.288-.552.959-1.092,1.919-1.092.803,0,2.051.479,2.051,2.471v3.466h-1.056v-3.346c0-.936-.348-1.715-1.343-1.715-.695,0-1.235.491-1.415,1.079-.048.132-.072.312-.072.491v3.49h-1.056v-4.233Z"/><path class="cls-44" d="M256.777,429.205c0,2.146-1.486,3.082-2.89,3.082-1.571,0-2.783-1.151-2.783-2.986,0-1.942,1.271-3.082,2.878-3.082,1.667,0,2.794,1.211,2.794,2.986ZM252.172,429.264c0,1.271.732,2.231,1.763,2.231,1.007,0,1.763-.947,1.763-2.255,0-.983-.491-2.23-1.739-2.23s-1.787,1.151-1.787,2.254Z"/><path class="cls-44" d="M258.112,427.921c0-.6-.012-1.092-.048-1.571h.924l.048.936h.036c.323-.552.863-1.067,1.823-1.067.791,0,1.391.479,1.643,1.163h.024c.18-.323.407-.575.647-.755.348-.265.731-.408,1.283-.408.768,0,1.907.504,1.907,2.519v3.418h-1.032v-3.286c0-1.115-.407-1.787-1.259-1.787-.6,0-1.067.444-1.247.96-.048.144-.084.336-.084.527v3.586h-1.031v-3.478c0-.924-.408-1.596-1.212-1.596-.659,0-1.14.528-1.308,1.056-.06.156-.084.336-.084.516v3.502h-1.031v-4.233Z"/><path class="cls-44" d="M269.296,424.719c.013.359-.252.647-.671.647-.372,0-.636-.288-.636-.647,0-.372.275-.66.659-.66.396,0,.647.288.647.66ZM268.121,432.155v-5.805h1.056v5.805h-1.056Z"/><path class="cls-44" d="M270.269,431.544l2.627-3.418c.252-.312.491-.588.756-.899v-.024h-3.143v-.852h4.426l-.013.66-2.59,3.37c-.24.323-.48.611-.744.911v.024h3.395v.839h-4.714v-.611Z"/><path class="cls-44" d="M276.568,429.445c.024,1.427.936,2.015,1.991,2.015.755,0,1.211-.132,1.606-.3l.181.756c-.372.168-1.008.359-1.932.359-1.787,0-2.854-1.175-2.854-2.927s1.032-3.13,2.723-3.13c1.896,0,2.399,1.667,2.399,2.734,0,.216-.024.384-.036.492h-4.078ZM279.663,428.689c.012-.672-.276-1.715-1.464-1.715-1.067,0-1.535.983-1.619,1.715h3.083Z"/><path class="cls-44" d="M281.992,428.162c0-.684-.012-1.271-.048-1.812h.924l.036,1.14h.048c.264-.779.899-1.271,1.606-1.271.12,0,.204.012.301.036v.995c-.108-.023-.217-.036-.36-.036-.743,0-1.271.564-1.415,1.355-.024.145-.048.312-.048.492v3.094h-1.044v-3.993Z"/></svg>